<svg xmlns="http://www.w3.org/2000/svg" version="1.1" xmlns:xlink="http://www.w3.org/1999/xlink" width="512" height="512" x="0" y="0" viewBox="0 0 512.001 512.001" style="enable-background:new 0 0 512 512" xml:space="preserve"><g><path d="M512 200.093H0V97.104a8.829 8.829 0 0 1 8.828-8.828h494.345a8.829 8.829 0 0 1 8.828 8.828L512 200.093z" style="" fill="#FF4B55" data-original="#ff4b55"></path><path d="M503.172 423.725H8.828A8.829 8.829 0 0 1 0 414.897V311.909h512v102.988a8.828 8.828 0 0 1-8.828 8.828z" style="" fill="#464655" data-original="#464655"></path><path d="M0 200.091h512v111.81H0z" style="" fill="#F5F5F5" data-original="#f5f5f5"></path><path d="M284.186 238.571c0-4.377-4.289-7.469-8.441-6.084l-7.804 2.601-1.895-11.444a14.047 14.047 0 0 0-13.906-11.78h-7.299l-7.634 9.396h10.109l-2.829 13.972-8.233-2.744c-4.153-1.385-8.441 1.707-8.441 6.084v47.475l11.363-11.363-5.354 16.061h-6.008v9.396h56.373v-9.396h-6.008l-5.354-16.061 11.363 11.363v-47.476h-.002zm-32.883 52.172h-7.574l5.208-13.909 2.366 3.021v10.888zm9.394 0v-10.888l2.366-3.021 5.208 13.909h-7.574zM256 273.714s-14.534-9.836-13.946-28.186c0 0 8.956-1.468 13.946-9.396 4.991 7.927 13.947 9.396 13.947 9.396.587 18.351-13.947 28.186-13.947 28.186z" style="" fill="#F0C727" data-original="#f0c727"></path></g></svg>